<?xml version="1.0" standalone="no"?><!DOCTYPE svg PUBLIC "-//W3C//DTD SVG 1.1//EN" "http://www.w3.org/Graphics/SVG/1.1/DTD/svg11.dtd"><svg t="1632055539276" class="icon" viewBox="0 0 1027 1024" version="1.1" xmlns="http://www.w3.org/2000/svg" p-id="4735" xmlns:xlink="http://www.w3.org/1999/xlink" width="200.5859375" height="200"><defs><style type="text/css"></style></defs><path d="M616.178661 1024.000002c-33.032258 0-63.523573-12.704715-87.662531-36.843673l-482.779157-482.779157C15.245658 475.156328 2.540943 431.960299 12.704715 390.03474l53.359802-232.496278c10.163772-45.736973 47.007444-82.580645 92.744417-92.744417l232.496278-53.359802c41.925558-8.8933 85.121588 2.540943 115.612903 33.032258l482.779157 482.779157c22.868486 22.868486 36.843673 54.630273 36.843673 87.662531 0 33.032258-12.704715 63.523573-36.843673 87.662531L703.841192 988.426801C679.702234 1011.295287 649.210919 1024.000002 616.178661 1024.000002L616.178661 1024.000002zM419.255584 53.359802c-6.352357 0-11.434243 1.270471-17.786601 2.540943L168.972705 107.990075c-29.220844 6.352357-52.08933 29.220844-58.441687 58.441687L57.171216 400.198512c-6.352357 26.679901 1.270471 54.630273 21.598015 73.687345l482.779157 482.779157c29.220844 29.220844 81.310174 29.220844 111.801489 0l285.85608-285.85608c15.245658-15.245658 22.868486-34.30273 22.868486-55.900745 0-21.598015-7.622829-40.655087-22.868486-55.900745l-482.779157-482.779157C459.910671 60.98263 440.853599 53.359802 419.255584 53.359802L419.255584 53.359802zM312.535981 409.091812 312.535981 409.091812c-26.679901 0-50.818859-10.163772-69.875931-29.220844-38.114144-38.114144-38.114144-100.367246 0-138.48139 19.057072-19.057072 43.19603-29.220844 69.875931-29.220844 26.679901 0 50.818859 10.163772 69.875931 29.220844 19.057072 19.057072 29.220844 43.19603 29.220844 69.875931 0 26.679901-10.163772 50.818859-29.220844 69.875931C363.354839 398.92804 337.94541 409.091812 312.535981 409.091812L312.535981 409.091812zM312.535981 256.635236c-13.975186 0-27.950372 5.081886-38.114144 15.245658-20.327543 20.327543-20.327543 54.630273 0 74.957817 20.327543 20.327543 55.900745 20.327543 74.957817 0 10.163772-10.163772 15.245658-22.868486 15.245658-38.114144 0-13.975186-5.081886-27.950372-15.245658-38.114144C339.215881 262.987594 326.511167 256.635236 312.535981 256.635236L312.535981 256.635236zM312.535981 256.635236" p-id="4736"></path></svg>