<?xml version="1.0" standalone="no"?><!DOCTYPE svg PUBLIC "-//W3C//DTD SVG 1.1//EN" "http://www.w3.org/Graphics/SVG/1.1/DTD/svg11.dtd"><svg t="1632055512155" class="icon" viewBox="0 0 1024 1024" version="1.1" xmlns="http://www.w3.org/2000/svg" p-id="2630" xmlns:xlink="http://www.w3.org/1999/xlink" width="200" height="200"><defs><style type="text/css"></style></defs><path d="M592.029538 440.871385h110.788924c20.204308 0 36.745846 16.462769 36.745846 36.588307 0 20.086154-16.541538 36.588308-36.745846 36.588308h-162.38277v109.686154h162.38277c20.204308 0 36.745846 16.462769 36.745846 36.588308 0 20.086154-16.541538 36.548923-36.745846 36.548923h-162.38277v106.023384c0 19.928615-15.990154 36.233846-35.564307 36.233846a35.997538 35.997538 0 0 1-35.524923-36.233846v-106.023384h-133.907693a36.745846 36.745846 0 0 1-36.785231-36.548923c0-20.086154 16.541538-36.588308 36.745847-36.588308h133.907692v-109.686154h-133.907692a36.745846 36.745846 0 0 1-36.745847-36.588308c0-20.086154 16.541538-36.588308 36.745847-36.588307h96.571077L309.720615 318.621538a35.603692 35.603692 0 0 1 0-51.593846 35.603692 35.603692 0 0 1 51.593847 0L512 417.792l150.724923-150.685538a35.603692 35.603692 0 0 1 51.593846 0 35.603692 35.603692 0 0 1 0 51.554461l-122.289231 122.249846zM512 1024C230.4 1024 0 793.6 0 512S230.4 0 512 0s512 230.4 512 512-230.4 512-512 512z m0-950.862769C270.611692 73.137231 73.137231 270.611692 73.137231 512c0 241.388308 197.474462 438.862769 438.862769 438.862769 241.388308 0 438.862769-197.474462 438.862769-438.862769 0-241.388308-197.474462-438.862769-438.862769-438.862769z" p-id="2631"></path></svg>