<?xml version="1.0" standalone="no"?><!DOCTYPE svg PUBLIC "-//W3C//DTD SVG 1.1//EN" "http://www.w3.org/Graphics/SVG/1.1/DTD/svg11.dtd"><svg t="1632055579783" class="icon" viewBox="0 0 1117 1024" version="1.1" xmlns="http://www.w3.org/2000/svg" p-id="6833" xmlns:xlink="http://www.w3.org/1999/xlink" width="218.1640625" height="200"><defs><style type="text/css"></style></defs><path d="M1070.312727 1023.674182a44.334545 44.334545 0 0 1-46.545454-41.890909V390.795636a46.801455 46.801455 0 0 1 93.090909 0v590.964364a44.334545 44.334545 0 0 1-46.545455 41.914182z m3.490909-768.465455a42.589091 42.589091 0 0 1-42.821818-42.449454V146.757818L763.112727 411.415273a51.339636 51.339636 0 0 1-67.258182 0L385.629091 104.727273 75.170909 411.671273a44.893091 44.893091 0 0 1-61.207273-1.675637 43.589818 43.589818 0 0 1-1.629091-60.509091L352.814545 12.753455a44.916364 44.916364 0 0 1 33.28-12.567273 45.498182 45.498182 0 0 1 33.745455 12.637091l309.76 306.362182 236.450909-233.658182h-64a42.472727 42.472727 0 1 1 0-84.922182h165.469091a44.893091 44.893091 0 0 1 21.410909 2.978909 41.890909 41.890909 0 0 1 27.927273 39.400727v169.890909a42.775273 42.775273 0 0 1-43.054546 42.333091zM46.545455 628.037818a45.218909 45.218909 0 0 1 46.778181 43.496727V980.247273a46.778182 46.778182 0 0 1-93.323636 0V671.534545a45.149091 45.149091 0 0 1 46.545455-43.496727z m348.858181-279.272727a44.474182 44.474182 0 0 1 46.545455 41.890909v590.964364a46.801455 46.801455 0 0 1-93.090909 0V390.795636a44.218182 44.218182 0 0 1 46.545454-41.914181z m349.556364 279.272727a45.149091 45.149091 0 0 1 46.545455 43.496727V980.247273a46.778182 46.778182 0 0 1-93.323637 0V671.534545a45.218909 45.218909 0 0 1 46.778182-43.496727z" p-id="6834"></path></svg>